<svg xmlns="http://www.w3.org/2000/svg" viewBox="585 537 34 34"><path d="M586.5 554.41L586.5 554.09C586.5 553.06 586.6 552.05 586.8 551.05C587 550.04 587.29 549.07 587.69 548.12C588.08 547.18 588.56 546.28 589.13 545.43C589.7 544.58 590.34 543.79 591.07 543.06C591.79 542.34 592.58 541.7 593.43 541.13C594.28 540.56 595.18 540.08 596.12 539.69C597.07 539.29 598.04 539 599.05 538.8C600.05 538.6 601.06 538.5 602.09 538.5L602.41 538.5C603.44 538.5 604.45 538.6 605.45 538.8C606.46 539 607.43 539.29 608.38 539.69C609.32 540.08 610.22 540.56 611.07 541.13C611.92 541.7 612.71 542.34 613.43 543.06C614.16 543.79 614.8 544.58 615.37 545.43C615.94 546.28 616.42 547.18 616.81 548.12C617.21 549.07 617.5 550.04 617.7 551.05C617.9 552.05 618 553.06 618 554.09L618 554.41C618 555.44 617.9 556.45 617.7 557.45C617.5 558.46 617.21 559.43 616.81 560.38C616.42 561.32 615.94 562.22 615.37 563.07C614.8 563.92 614.16 564.71 613.43 565.43C612.71 566.16 611.92 566.8 611.07 567.37C610.22 567.94 609.32 568.42 608.38 568.81C607.43 569.21 606.46 569.5 605.45 569.7C604.45 569.9 603.44 570 602.41 570L602.09 570C601.06 570 600.05 569.9 599.05 569.7C598.04 569.5 597.07 569.21 596.12 568.81C595.18 568.42 594.28 567.94 593.43 567.37C592.58 566.8 591.79 566.16 591.07 565.43C590.34 564.71 589.7 563.92 589.13 563.07C588.56 562.22 588.08 561.32 587.69 560.38C587.29 559.43 587 558.46 586.8 557.45C586.6 556.45 586.5 555.44 586.5 554.41" fill="#1e63c6"/><path d="M607.11 552.58C606.93 552.39 606.75 552.2 606.69 552.05C606.64 551.92 606.63 551.66 606.63 551.42C606.62 550.91 606.61 550.28 606.16 549.83C605.71 549.39 605.08 549.38 604.57 549.37C604.34 549.36 604.07 549.36 603.94 549.31C603.8 549.25 603.6 549.06 603.42 548.88C603.06 548.54 602.61 548.11 602 548.11C601.39 548.11 600.94 548.54 600.58 548.88C600.39 549.06 600.2 549.25 600.05 549.31C599.92 549.36 599.66 549.36 599.42 549.37C598.91 549.38 598.28 549.39 597.84 549.84C597.39 550.29 597.38 550.91 597.37 551.42C597.36 551.66 597.36 551.92 597.31 552.05C597.25 552.2 597.06 552.39 596.88 552.58C596.54 552.94 596.11 553.39 596.11 554C596.11 554.61 596.54 555.06 596.88 555.42C597.06 555.61 597.25 555.8 597.31 555.94C597.36 556.07 597.36 556.34 597.37 556.58C597.38 557.08 597.39 557.72 597.83 558.16C598.28 558.61 598.91 558.62 599.42 558.63C599.66 558.63 599.92 558.64 600.05 558.69C600.2 558.75 600.39 558.94 600.58 559.12C600.94 559.46 601.39 559.89 602 559.89C602.61 559.89 603.06 559.46 603.42 559.11C603.6 558.93 603.8 558.75 603.94 558.69C604.07 558.64 604.34 558.63 604.57 558.63C605.08 558.62 605.71 558.61 606.16 558.16C606.61 557.71 606.62 557.08 606.63 556.57C606.63 556.34 606.64 556.07 606.69 555.94C606.75 555.8 606.93 555.6 607.11 555.42C607.46 555.06 607.89 554.61 607.89 554C607.89 553.39 607.46 552.94 607.11 552.58M606.23 554.57C605.99 554.83 605.71 555.12 605.56 555.48C605.42 555.82 605.42 556.19 605.41 556.56C605.41 556.83 605.4 557.2 605.3 557.3C605.2 557.4 604.83 557.41 604.56 557.41C604.2 557.42 603.82 557.42 603.48 557.56C603.12 557.71 602.83 557.99 602.58 558.23C602.39 558.41 602.12 558.67 602 558.67C601.88 558.67 601.6 558.41 601.42 558.23C601.17 557.99 600.88 557.71 600.52 557.56C600.18 557.42 599.8 557.42 599.44 557.41C599.17 557.41 598.79 557.4 598.7 557.3C598.6 557.2 598.59 556.83 598.59 556.56C598.58 556.2 598.58 555.82 598.43 555.48C598.29 555.12 598.01 554.83 597.76 554.58C597.59 554.39 597.33 554.12 597.33 554C597.33 553.88 597.59 553.6 597.76 553.42C598.01 553.17 598.28 552.88 598.43 552.52C598.58 552.18 598.58 551.8 598.58 551.44C598.59 551.17 598.6 550.79 598.7 550.7C598.8 550.6 599.17 550.59 599.44 550.59C599.8 550.58 600.18 550.58 600.52 550.44C600.88 550.29 601.17 550.01 601.42 549.77C601.6 549.59 601.88 549.33 602 549.33C602.12 549.33 602.39 549.59 602.57 549.76C602.83 550.01 603.12 550.28 603.48 550.43C603.82 550.58 604.19 550.58 604.56 550.58C604.83 550.59 605.2 550.59 605.3 550.69C605.4 550.79 605.41 551.17 605.41 551.44C605.42 551.8 605.42 552.17 605.56 552.52C605.71 552.87 605.99 553.16 606.23 553.42C606.4 553.6 606.67 553.87 606.67 554C606.67 554.12 606.41 554.39 606.23 554.57M604.46 552.35C604.58 552.47 604.64 552.61 604.64 552.78C604.64 552.95 604.58 553.09 604.46 553.21L601.62 556.05C601.5 556.17 601.35 556.23 601.19 556.23C601.02 556.23 600.87 556.17 600.75 556.05L599.54 554.84C599.42 554.72 599.36 554.57 599.36 554.4C599.36 554.24 599.42 554.09 599.54 553.97C599.65 553.85 599.8 553.79 599.97 553.79C600.14 553.79 600.28 553.85 600.4 553.97L601.19 554.76L603.6 552.35C603.72 552.23 603.86 552.17 604.03 552.17C604.2 552.17 604.34 552.23 604.46 552.35" fill="#ffffff"/></svg>